<?xml version="1.0" encoding="iso-8859-1"?>
<!-- Generator: Adobe Illustrator 16.0.0, SVG Export Plug-In . SVG Version: 6.00 Build 0)  -->
<!DOCTYPE svg PUBLIC "-//W3C//DTD SVG 1.1//EN" "http://www.w3.org/Graphics/SVG/1.1/DTD/svg11.dtd">
<svg version="1.1" id="Layer_1" xmlns="http://www.w3.org/2000/svg" xmlns:xlink="http://www.w3.org/1999/xlink" x="0px" y="0px"
	 width="512px" height="512px" viewBox="0 0 512 512" style="enable-background:new 0 0 512 512;" xml:space="preserve">
<path d="M455.842,268.688l-49.624-28.786v-9.422c0-6.268-5.08-11.348-11.348-11.348c-5.07,0-9.359,3.325-10.815,7.912
	l-25.442-14.759v-11.144c0-6.268-5.08-11.348-11.348-11.348c-5.611,0-10.259,4.076-11.173,9.428l-28.66-16.626V99.091
	c0-17.646-5.054-34.323-14.229-46.961c-9.702-13.361-22.831-20.72-36.968-20.72s-27.266,7.358-36.968,20.72
	c-9.176,12.638-14.229,29.315-14.229,46.961v83.232l-29.131,16.899c-0.914-5.352-5.562-9.428-11.173-9.428
	c-6.268,0-11.348,5.08-11.348,11.348v11.144l-25.442,14.759c-1.456-4.587-5.746-7.912-10.815-7.912
	c-6.268,0-11.348,5.08-11.348,11.348v9.422l-49.624,28.786c-2.313,1.342-3.737,3.813-3.737,6.487v35.539
	c0,2.398,1.147,4.652,3.086,6.063c1.299,0.945,2.848,1.437,4.415,1.437c0.773,0,1.55-0.119,2.304-0.362l142.813-46.107v87.184
	v23.725c0,1.831,0.059,3.742,0.169,5.712l-45.528,46.25c-1.381,1.403-2.155,3.293-2.155,5.262v19.495c0,4.143,3.358,7.5,7.5,7.5
	h67.024c6.754,8.251,14.815,13.718,24.187,13.718c9.371,0,17.433-5.467,24.187-13.718h66.554c4.142,0,7.5-3.357,7.5-7.5v-19.495
	c0-1.969-0.774-3.858-2.155-5.262l-45.082-45.797c0.127-2.131,0.194-4.193,0.194-6.165v-23.725v-87.032l142.342,45.956
	c0.754,0.243,1.531,0.362,2.304,0.362c1.567,0,3.116-0.491,4.415-1.437c1.939-1.411,3.086-3.665,3.086-6.063v-35.539
	C459.579,272.502,458.155,270.03,455.842,268.688z M204.567,256.134L67.421,300.412v-20.916l137.146-79.559V256.134z
	 M172.524,451.872v-8.923l35.085-35.643c0.083,0.439,0.159,0.875,0.246,1.314c0,0.002,0,0.004,0,0.005
	c2.477,12.536,7.341,29.144,14.591,43.246H172.524z M256.235,465.59c-11.835,0-27.251-27.418-33.664-59.872c0-0.001,0-0.002,0-0.003
	c-1.657-8.391-2.533-16.365-2.533-23.062v-23.725V99.091c0-29.048,16.238-52.681,36.197-52.681s36.197,23.633,36.197,52.681v87.825
	v74.678v97.335v23.725c0,6.699-0.876,14.673-2.532,23.062c0,0.001,0,0.002,0,0.003C283.487,438.172,268.07,465.59,256.235,465.59z
	 M339.476,442.949v8.923h-49.452c7.25-14.103,12.114-30.71,14.592-43.246c0-0.001,0-0.003,0-0.005
	c0.061-0.305,0.112-0.606,0.17-0.911L339.476,442.949z M444.579,300.412l-137.146-44.278v-56.196l137.146,79.559V300.412z"/>
</svg>
